<svg xmlns="http://www.w3.org/2000/svg" viewBox="0 0 463.8 818.9">
  <defs>
    <style>
      .a {
        fill: #f8b1b2;
      }

      .b {
        fill: #f69ea1;
      }

      .c {
        fill: #f6deda;
        stroke: #000;
        stroke-linecap: round;
        stroke-linejoin: round;
        stroke-width: 22px;
      }
        .all{
        animation: rotate .5s ease-in infinite alternate;
        }
        
      @keyframes rotate {
        0%{
          transform: rotateY(180deg);
          transform-origin:50% 50%;
        }
        100% {
          transform: translateY(200px);
          transform-origin:50% 50%;
        }
      }
    </style>
  </defs>
  <title>loadingIcon</title>
  <g class="all">
    <g>
      <path class="a" d="M461,489c0,122-220.9,376-220.9,376S19.2,611,19.2,489s98.9-220.9,220.9-220.9S461,367,461,489Z" transform="translate(-8.2 -257.1)"/>
      <path class="b" d="M461,489c0,122-220.9,376-220.9,376S424.3,630.8,398.3,459.4C373.9,299.5,210.1,266.1,210.1,266.1,332.1,266.1,461,334.8,461,489Z" transform="translate(-8.2 -257.1)"/>
      <path d="M240.1,876a11,11,0,0,1-8.3-3.8c-.5-.6-56.2-64.8-111.1-143.2C46.1,622.6,8.2,541.9,8.2,489A231.9,231.9,0,0,1,404.1,325,230.3,230.3,0,0,1,472,489c0,52.9-37.8,133.6-112.4,240C304.7,807.4,249,871.6,248.4,872.2A11,11,0,0,1,240.1,876Zm0-596.9C124.4,279.1,30.2,373.2,30.2,489c0,47.6,37.5,126.2,108.5,227.4,41.8,59.7,84,110.9,101.4,131.6,17.5-20.7,59.7-72.1,101.6-131.7C412.6,615.2,450,536.6,450,489,450,373.2,355.9,279.1,240.1,279.1Z" transform="translate(-8.2 -257.1)"/>
    </g>
    <g>
      <path class="c" d="M240.1,594.9s-91.9-30.5-102.5-106.6c-7.7-55.3,27.9-68.6,51.3-68.4,33.5.3,51.2,38.3,51.2,38.3" transform="translate(-8.2 -257.1)"/>
      <path class="c" d="M240.1,594.9S332,564.4,342.7,488.3c7.7-55.3-28-68.6-51.3-68.4-33.5.3-51.3,38.3-51.3,38.3" transform="translate(-8.2 -257.1)"/>
    </g>
  </g>
</svg>
